<svg width="49" height="48" viewBox="0 0 49 48" fill="none" xmlns="http://www.w3.org/2000/svg">
<path d="M26.3263 47.7853H22.6372C22.555 47.6481 22.4134 47.7005 22.2959 47.6893C19.34 47.4232 16.46 46.6176 13.8026 45.3136C3.78203 40.3738 -1.45959 29.6237 0.869179 18.8026C3.13094 8.292 12.604 0.422766 23.4868 0.0261871C28.291 -0.149655 32.793 0.899163 36.8943 3.37217C43.3673 7.27977 47.2292 12.9412 48.48 20.3565C48.5735 20.914 48.5432 21.4901 48.7467 22.0314V25.7639C48.638 25.8151 48.6608 25.9173 48.6519 26.0059C48.1652 31.1627 46.2207 35.7183 42.7554 39.5993C38.8446 43.9858 33.9511 46.6272 28.0748 47.5234C27.4932 47.617 26.894 47.5958 26.3263 47.7853ZM38.2357 12.2703C37.9686 12.2907 37.7064 12.3517 37.4582 12.4511L21.9646 17.9608L10.2424 22.1261C9.98954 22.2159 9.7367 22.3057 9.57361 22.5352C9.16399 23.0964 9.47246 23.7661 10.2462 23.9756C12.4144 24.5642 14.5826 25.1554 16.7571 25.7215C16.8856 25.7449 17.0044 25.8044 17.0993 25.8929C17.1942 25.9814 17.2611 26.0952 17.2919 26.2204C18.0796 28.5288 18.8824 30.8347 19.6814 33.1381C20.0885 34.3103 21.0581 34.5573 21.9684 33.7155C23.0152 32.7477 24.0671 31.785 25.0899 30.7948C25.363 30.5291 25.5311 30.5453 25.8307 30.7461C28.0221 32.2343 30.2236 33.7101 32.4352 35.1733C33.549 35.9141 34.6616 35.4889 34.9549 34.2106C36.5074 27.4588 38.0574 20.7065 39.6049 13.9539C39.8173 13.041 39.1851 12.2653 38.2357 12.2703Z" fill="white"/>
</svg>
