<svg width="49" height="48" viewBox="0 0 49 48" fill="none" xmlns="http://www.w3.org/2000/svg">
<path d="M25.3838 48H23.6795C23.4267 47.9626 23.1865 47.9202 22.9387 47.8903C22.0183 47.783 21.0865 47.7319 20.1763 47.566C15.7514 46.7567 11.8321 44.9022 8.48691 41.9354C3.89891 37.8648 1.20857 32.8028 0.503112 26.7369C0.433578 26.1383 0.367831 25.5397 0.299561 24.9398V23.26C0.336224 23.0168 0.37668 22.7736 0.409551 22.5292C0.559998 21.423 0.632064 20.3006 0.871009 19.2144C2.33376 12.5536 6.01529 7.38682 11.8701 3.79266C17.118 0.570144 22.8578 -0.440009 28.9262 0.644972C34.5547 1.65139 39.2717 4.34264 42.9507 8.66635C47.8282 14.3968 49.5855 21.0202 48.3225 28.3806C47.5715 32.7542 45.6296 36.6115 42.622 39.9176C38.4904 44.4533 33.36 47.1021 27.2068 47.798L25.3838 48ZM24.562 12.0547C23.7503 12.1483 22.926 12.1794 22.1296 12.3466C14.4694 13.9204 10.3429 21.9879 13.5844 29.0191C13.6951 29.2714 13.729 29.55 13.6818 29.821C13.3265 31.633 12.9384 33.4376 12.5616 35.2447C12.4188 35.9331 12.6792 36.1825 13.372 36.0216C15.1774 35.6013 16.9802 35.1723 18.7906 34.7745C19.0456 34.7243 19.31 34.7513 19.5492 34.8518C21.8249 35.8308 24.1663 36.1463 26.6114 35.7161C29.7049 35.1832 32.4659 33.4812 34.3073 30.9719C36.1488 28.4626 36.9256 25.3439 36.4726 22.2785C35.6154 16.4583 30.5419 12.1271 24.562 12.0547Z" fill="white"/>
</svg>
